<svg id="Component_11_9" data-name="Component 11 – 9" xmlns="http://www.w3.org/2000/svg" xmlns:xlink="http://www.w3.org/1999/xlink" width="1920" height="110" viewBox="0 0 1920 110">
  <defs>
    <clipPath id="clip-path">
      <rect id="Rectangle_147755" data-name="Rectangle 147755" width="1920" height="110" transform="translate(0 100)" fill="#fdbd2c"/>
    </clipPath>
    <linearGradient id="linear-gradient" x1="0.242" y1="0.143" x2="0.38" y2="0.5" gradientUnits="objectBoundingBox">
      <stop offset="0" stop-color="#d1d1d1"/>
      <stop offset="1" stop-color="#f5f5f5"/>
    </linearGradient>
  </defs>
  <rect id="Rectangle_649" data-name="Rectangle 649" width="1920" height="110" fill="#0070f5"/>
  <text id="Careers" transform="translate(312 41)" fill="#fff" font-size="28" font-family="Montserrat-Bold, Montserrat" font-weight="700"><tspan x="0" y="27">Careers</tspan></text>
  <g id="Mask_Group_36" data-name="Mask Group 36" transform="translate(0 -100)" clip-path="url(#clip-path)">
    <path id="Union_14" data-name="Union 14" d="M9442.125,5878.107l-45.3-31.178a21.4,21.4,0,0,1-8.918-13.391,22.155,22.155,0,0,1-15.859-3.658l-45.3-31.18a21.412,21.412,0,0,1-9.016-13.875,21.146,21.146,0,0,1,3.641-16.066l8.461-11.879a22.142,22.142,0,0,1,30.465-5.277l45.309,31.18a21.44,21.44,0,0,1,8.9,13.424,22.116,22.116,0,0,1,15.879,3.625l45.316,31.184a21.3,21.3,0,0,1,5.367,29.938l-8.461,11.881a21.879,21.879,0,0,1-14.121,8.852,22.129,22.129,0,0,1-16.352-3.578Zm-30.258-64.771-8.465,11.881a7.2,7.2,0,0,0,1.762,10l45.316,31.184a7.409,7.409,0,0,0,10.176-1.785l8.461-11.879a7.02,7.02,0,0,0,1.188-5.338,7.092,7.092,0,0,0-3.02-4.584l-45.312-31.189a7.394,7.394,0,0,0-10.105,1.711Zm-70.094-48.236-8.469,11.883a7.192,7.192,0,0,0,1.777,10l45.309,31.18a7.415,7.415,0,0,0,10.176-1.785l8.453-11.879a7,7,0,0,0,1.188-5.338,7.123,7.123,0,0,0-3.012-4.588l-45.3-31.18a7.4,7.4,0,0,0-10.117,1.7Z" transform="translate(6069.773 -9243.386) rotate(90)" fill="#fff"/>
  </g>
  <g id="Mask_Group_37" data-name="Mask Group 37" transform="translate(0 -100)" clip-path="url(#clip-path)">
    <path id="Union_25" data-name="Union 25" d="M16989.586-3211.461l-222.807-156.206a107.529,107.529,0,0,1-43.869-67.1,107.293,107.293,0,0,1-77.98-18.326L16422.121-3609.3a107.522,107.522,0,0,1-44.331-69.508,107.627,107.627,0,0,1,17.9-80.506l41.621-59.513a107.63,107.63,0,0,1,149.832-26.437l222.8,156.206a107.5,107.5,0,0,1,43.766,67.253,107.241,107.241,0,0,1,78.084,18.174l222.85,156.233a107.936,107.936,0,0,1,26.393,149.986l-41.619,59.513a107.4,107.4,0,0,1-69.434,44.365,107.247,107.247,0,0,1-18.635,1.631A107.317,107.317,0,0,1,16989.586-3211.461Zm-148.824-324.513-41.621,59.517a36.456,36.456,0,0,0,8.682,50.1l222.848,156.233a36.008,36.008,0,0,0,50.031-8.939l41.621-59.517a35.655,35.655,0,0,0,5.824-26.741,35.626,35.626,0,0,0-14.826-22.987l-222.846-156.233a35.763,35.763,0,0,0-20.488-6.442A35.876,35.876,0,0,0,16840.762-3535.974Zm-344.7-241.66-41.619,59.517a36.456,36.456,0,0,0,8.719,50.131l222.811,156.206a36.031,36.031,0,0,0,50.031-8.942l41.623-59.514a35.707,35.707,0,0,0,5.813-26.737,35.673,35.673,0,0,0-14.82-22.99l-222.807-156.206a35.734,35.734,0,0,0-20.523-6.469A35.882,35.882,0,0,0,16496.063-3777.634Z" transform="translate(-15669.209 3708.559)" opacity="0.2" fill="url(#linear-gradient)"/>
  </g>
</svg>
