<svg xmlns="http://www.w3.org/2000/svg" width="32" height="32" viewBox="0 0 32 32">
  <path id="icons8-linkedin" d="M33.091,4H6.909A2.908,2.908,0,0,0,4,6.909V33.091A2.908,2.908,0,0,0,6.909,36H33.091A2.908,2.908,0,0,0,36,33.091V6.909A2.908,2.908,0,0,0,33.091,4ZM14.115,30.182H9.824V16.375h4.291ZM11.926,14.4a2.5,2.5,0,1,1,2.5-2.5A2.5,2.5,0,0,1,11.926,14.4Zm18.262,15.78H25.9V23.468c0-1.6-.029-3.661-2.23-3.661-2.233,0-2.576,1.744-2.576,3.545v6.831H16.806V16.375h4.116v1.887h.058a4.509,4.509,0,0,1,4.06-2.23c4.345,0,5.148,2.86,5.148,6.577Z" transform="translate(-4 -4)" fill="#323232"/>
</svg>
