<svg xmlns="http://www.w3.org/2000/svg" width="32" height="32" viewBox="0 0 32 32">
  <path id="icons8-twitter_1_" data-name="icons8-twitter (1)" d="M31.444,3H6.556A3.555,3.555,0,0,0,3,6.556V31.444A3.555,3.555,0,0,0,6.556,35H31.444A3.555,3.555,0,0,0,35,31.444V6.556A3.555,3.555,0,0,0,31.444,3ZM27.978,14.58v.61a12.42,12.42,0,0,1-12.5,12.5,12.8,12.8,0,0,1-6.7-1.98H9.844a9.856,9.856,0,0,0,5.486-1.829,4.444,4.444,0,0,1-4.114-3.047,6.657,6.657,0,0,1,.763.153,3.347,3.347,0,0,0,1.22-.153,4.4,4.4,0,0,1-3.5-4.267,7.6,7.6,0,0,0,1.98.61,4.993,4.993,0,0,1-1.98-3.81,3.5,3.5,0,0,1,.61-2.133A12.369,12.369,0,0,0,19.3,15.8c0-.3-.153-.61-.153-1.067a4.423,4.423,0,0,1,4.42-4.42,4.152,4.152,0,0,1,3.2,1.371A7.4,7.4,0,0,0,29.5,10.618a4.454,4.454,0,0,1-1.98,2.437,8.336,8.336,0,0,0,2.59-.763A10.291,10.291,0,0,1,27.978,14.58Z" transform="translate(-3 -3)" fill="#323232"/>
</svg>
